<svg id="Layer_1" data-name="Layer 1" xmlns="http://www.w3.org/2000/svg" viewBox="0 0 108 108.9"><defs><style>.cls-1{fill:#fff;}</style></defs><title>t9logowhite</title><path id="Layer_2" data-name="Layer 2" class="cls-1" d="M64.8,0H0V16.6H23.6V80.7H40.2V16.6h9.5A32.62,32.62,0,0,1,64.8,0ZM91.1,28.7,78.3,80.6H94.9l12.9-52.2a6.8,6.8,0,0,0,.2-2A28.58,28.58,0,1,0,75.5,56.8l4-16.3A12,12,0,1,1,91.1,25.4,6.16,6.16,0,0,1,91.1,28.7ZM14.3,108.8V96.6H10.6V95.2h9v1.4H15.8v12.2Zm9.9,0V95.2h1.5v5.7h7.6V95.2h1.5v13.6H33.3v-6.5H25.7v6.5Zm16.2,0V95.2h4.7A3.85,3.85,0,0,1,48,96.4a4.18,4.18,0,0,1-1.4,6.8l3.3,5.7H48.1L45,103.5H41.9v5.4H40.4Zm1.5-6.8h3a2.73,2.73,0,0,0,1.9-.8,3,3,0,0,0,.8-2,2.56,2.56,0,0,0-2.5-2.6H41.9Zm13.3,6.8V95.2h1.5v13.6Zm12,0L61.5,95.2h1.7l4.6,11.1,4.6-11.1H74l-5.7,13.6Zm10.8,0V95.2h7.7v1.4H79.5v4.3h5.8v1.4H79.5v5.1h6.3v1.4ZM101.5,96a4.9,4.9,0,0,0-8.4,3.5,4.76,4.76,0,0,0,1.4,3.4,5.07,5.07,0,0,0,3.3,1.3h.6l-3.3,4.7h2.4l3-4.6c.1-.1.1-.2.2-.3.5-.7.8-1.3,1.1-1.7a6.11,6.11,0,0,0,.7-1.4,4.7,4.7,0,0,0-1-4.9Zm-3.5.6a2.92,2.92,0,0,1,3.1,2.8,2.87,2.87,0,0,1-2.8,3.1H98a2.92,2.92,0,0,1-3.1-2.8,2.87,2.87,0,0,1,2.8-3.1A.19.19,0,0,1,98,96.6Z"/></svg>