<svg xmlns="http://www.w3.org/2000/svg" viewBox="0 0 476.93 480.9"><defs><style>.cls-1{fill:#f26a29;}</style></defs><title>Asset 1</title><g id="Layer_2" data-name="Layer 2"><g id="Layer_1-2" data-name="Layer 1"><path id="Layer_2-2" data-name="Layer 2" class="cls-1" d="M286.16,0H0V73.31H104.22V356.37h73.3V73.31h41.95C232.28,41.51,256.13,15.9,286.16,0ZM402.3,126.74,345.77,355.93h73.31l57-230.52a29.81,29.81,0,0,0,.89-8.83C472.07,47.25,411.57-4.86,341.8.44A126,126,0,0,0,225.21,135.13c4.42,59.17,49.46,107.75,108.2,115.7l17.66-72a53,53,0,1,1,51.23-66.68A27.3,27.3,0,0,1,402.3,126.74ZM63.15,480.46V426.58H46.81V420.4H86.55v6.18H69.77v53.88Zm43.72,0V420.4h6.62v25.17h33.56V420.4h6.63v60.06h-6.63V451.75H113.49v28.71Zm71.54,0V420.4h20.75c4.86,0,9.72,1.77,12.81,5.3a18.45,18.45,0,0,1-6.19,30l14.58,25.17h-8l-13.69-23.85H185V480.9h-6.62Zm6.62-30h13.25a12.1,12.1,0,0,0,8.39-3.53,13.12,13.12,0,0,0,3.53-8.84,11.31,11.31,0,0,0-11-11.48H185Zm58.73,30V420.4h6.63v60.06Zm53,0L271.58,420.4h7.51l20.31,49,20.32-49h7.06l-25.17,60.06Zm47.7,0V420.4h34v6.18H351.07v19h25.61v6.18H351.07v22.53h27.82v6.18Zm103.77-56.53a21.64,21.64,0,0,0-37.09,15.46,21,21,0,0,0,6.18,15,22.33,22.33,0,0,0,14.57,5.74h2.65L420,480.9h10.6l13.25-20.31c.44-.45.44-.89.88-1.33,2.21-3.09,3.53-5.74,4.86-7.51a27.26,27.26,0,0,0,3.09-6.18,20.8,20.8,0,0,0-4.42-21.64Zm-15.45,2.65A12.92,12.92,0,0,1,446.46,439c.44,7.51-4.86,13.25-12.37,13.69h-1.32a12.91,12.91,0,0,1-13.69-12.37c-.45-7.5,4.85-13.24,12.36-13.69A.84.84,0,0,1,432.77,426.58Z"/></g></g></svg>