<?xml version="1.0" encoding="utf-8"?>
<!-- Generator: Adobe Illustrator 22.1.0, SVG Export Plug-In . SVG Version: 6.00 Build 0)  -->
<svg version="1.1" id="Layer_1" xmlns="http://www.w3.org/2000/svg" xmlns:xlink="http://www.w3.org/1999/xlink" x="0px" y="0px"
	 viewBox="0 0 108 109" style="enable-background:new 0 0 108 109;" xml:space="preserve">
<style type="text/css">
	.st0{fill:#F26A29;}
</style>
<title>Asset 1</title>
<path id="Layer_2_1_" class="st0" d="M64.8,0H0v16.6h23.6v64.1h16.6V16.6h9.5C52.6,9.4,58,3.6,64.8,0z M91.1,28.7L78.3,80.6h16.6
	l12.9-52.2c0.2-0.7,0.2-1.3,0.2-2C106.9,10.7,93.2-1.1,77.4,0.1S49.9,14.9,51,30.6C52,44,62.2,55,75.5,56.8l4-16.3
	c-6.6,0-12-5.4-12-12c0-6.6,5.4-12,12-12c5.4,0,10.2,3.6,11.6,8.9C91.4,26.5,91.4,27.6,91.1,28.7z M14.3,108.8V96.6h-3.7v-1.4h9v1.4
	h-3.8v12.2L14.3,108.8z M24.2,108.8V95.2h1.5v5.7h7.6v-5.7h1.5v13.6h-1.5v-6.5h-7.6v6.5L24.2,108.8z M40.4,108.8V95.2h4.7
	c1.1,0,2.2,0.4,2.9,1.2c0.8,0.8,1.2,1.8,1.2,2.9c0.1,1.7-1,3.3-2.6,3.9l3.3,5.7h-1.8l-3.1-5.4h-3.1v5.4H40.4z M41.9,102h3
	c0.7,0,1.4-0.3,1.9-0.8c0.5-0.5,0.8-1.3,0.8-2c0-1.4-1.1-2.6-2.5-2.6c0,0-0.1,0-0.1,0h-3.1V102z M55.2,108.8V95.2h1.5v13.6
	L55.2,108.8z M67.2,108.8l-5.7-13.6h1.7l4.6,11.1l4.6-11.1H74l-5.7,13.6H67.2z M78,108.8V95.2h7.7v1.4h-6.2v4.3h5.8v1.4h-5.8v5.1
	h6.3v1.4L78,108.8z M101.5,96c-0.9-0.9-2.2-1.4-3.5-1.4c-1.3,0-2.6,0.5-3.5,1.4c-0.9,0.9-1.4,2.2-1.4,3.5c0,1.3,0.5,2.5,1.4,3.4
	c0.9,0.8,2.1,1.3,3.3,1.3c0.2,0,0.4,0,0.6,0l-3.3,4.7h2.4l3-4.6c0.1-0.1,0.1-0.2,0.2-0.3c0.5-0.7,0.8-1.3,1.1-1.7
	c0.3-0.4,0.5-0.9,0.7-1.4c0.2-0.5,0.3-1.1,0.3-1.7C102.8,98.2,102.4,96.9,101.5,96z M98,96.6c1.6-0.1,3,1.1,3.1,2.8s-1.1,3-2.8,3.1
	c-0.1,0-0.2,0-0.3,0c-1.6,0.1-3-1.1-3.1-2.8s1.1-3,2.8-3.1C97.8,96.5,97.9,96.5,98,96.6z"/>
</svg>
