<svg id="Layer_1" data-name="Layer 1" xmlns="http://www.w3.org/2000/svg" viewBox="0 0 21.43 36"><defs><style>.cls-1{fill:#ef3824;}</style></defs><title>logo</title><rect class="cls-1" x="7.56" y="11.39" width="12.81" height="0.73"/><rect class="cls-1" x="1.11" y="11.39" width="7.21" height="0.73"/><path class="cls-1" d="M302,108.33l0-.12a0.69,0.69,0,1,1,1.24-.3l0,0.11h0a2.12,2.12,0,0,0,1.2,1.84,1.93,1.93,0,0,0,1.84-.49h0v-23l4,0v19.07h0a4.72,4.72,0,0,1-2.95,4.62,4.08,4.08,0,0,1-1.38.23h-0.72a3.2,3.2,0,0,1-3.18-2" transform="translate(-301.95 -74.29)"/><path class="cls-1" d="M322.89,99.95a0.32,0.32,0,0,1,.37-0.24,0.32,0.32,0,0,1,.08.43,4.6,4.6,0,0,1-.21.52,3.9,3.9,0,0,1-3.35,2.33H318.6a3.76,3.76,0,0,1-3.39-2.92,12.54,12.54,0,0,1-.18-2.12V81.44A3.31,3.31,0,0,0,316.16,79a3.67,3.67,0,0,0-3.84-3.47,4.07,4.07,0,0,0-2.46.81,2.7,2.7,0,0,1,1,2.11,2.59,2.59,0,1,1-5.18,0,2.73,2.73,0,0,1,.49-1.57l0,0a6.31,6.31,0,0,1,5.2-2.6h1.58a5.88,5.88,0,0,1,6.07,5.6v22.22a2.69,2.69,0,0,0,1.29.2,3.16,3.16,0,0,0,2.61-2.36" transform="translate(-301.95 -74.29)"/></svg>