<svg id="Layer_1" data-name="Layer 1" xmlns="http://www.w3.org/2000/svg" viewBox="0 0 72 108"><title>Artboard 1</title><path d="M30.18,34.39l.52.31V82.06c0,14.72-6.12,22.6-17.62,22.6-5.59,0-9.63-2.39-9.63-5.7a4.08,4.08,0,0,1,4.24-4c1.66,0,3.11.93,5,3.31,1.76,2.18,2.8,2.9,4.35,2.9a4.3,4.3,0,0,0,3.52-1.86C21.69,97.19,22,94.6,22,86.73V47.45c0-4.46-.93-6.22-3.31-6.22a21.71,21.71,0,0,0-4.15.31l-.52.11V40C20.13,38.12,24.07,36.77,30.18,34.39ZM67.1,76.46c-2.29,2.69-3.95,3.62-6.22,3.62-3.84,0-5.39-2.69-5.39-9.32V41.11H66V37.8H55.49v-12c0-.17,0-.31,0-.44,0-.3,0-.61,0-.91,0-11.07-8.1-20-18.09-20-7.69,0-14.26,5.32-16.87,12.81l0,0a5,5,0,0,0-.32,1.7,5.29,5.29,0,1,0,10.57,0,5.3,5.3,0,0,0-4.66-5.22,12.26,12.26,0,0,1,3.73-4.42c6-4.32,14.78-2.4,19.61,4.3,4.16,5.76,4,13.18.1,17.9l.33-.35c-2.78,3.61-5.24,6.1-7.27,7.28-1.14.72-1.77,1.35-1.77,2a.78.78,0,0,0,.42.72h5.49v31.2c0,8.7,3.11,13.16,9.12,13.16,5.18,0,9.12-2.49,12.54-7.87Z"/></svg>